<svg viewBox="0 0 64 64" xmlns="http://www.w3.org/2000/svg">
  <g transform="matrix(.02081 0 0-.02081 5 62.33)">
    <path d="m1263 1297l270 1003 996-267-267-990c-427-1583-2420-1046-1999 519 3 11 999-266 999-266z" fill="none" stroke="#9d6329" stroke-linejoin="round" stroke-linecap="round" stroke-width="180" stroke-miterlimit="3.864" />
    <path d="m1263 1297l270 1003 996-267-267-990c-427-1583-2420-1046-1998 519 3 11 999-266 999-266" fill="#f89c0e" />
    <path d="m357 2850l1000-268-267-992-1000 266 267 994z" fill="none" stroke="#86882b" stroke-linejoin="round" stroke-linecap="round" stroke-width="180" stroke-miterlimit="3.864" />
    <path d="m357 2850l1000-268-267-992-1000 266 267 994" fill="#d9e70c" />
  </g>
</svg>
