<?xml version="1.0" encoding="UTF-8" standalone="no"?>
<!-- Created with Inkscape (http://www.inkscape.org/) -->

<svg
   xmlns:dc="http://purl.org/dc/elements/1.1/"
   xmlns:cc="http://creativecommons.org/ns#"
   xmlns:rdf="http://www.w3.org/1999/02/22-rdf-syntax-ns#"
   xmlns:svg="http://www.w3.org/2000/svg"
   xmlns="http://www.w3.org/2000/svg"
   xmlns:sodipodi="http://sodipodi.sourceforge.net/DTD/sodipodi-0.dtd"
   xmlns:inkscape="http://www.inkscape.org/namespaces/inkscape"
   version="1.1"
   width="64"
   height="64"
   id="svg3004"
   xml:space="preserve"
   inkscape:version="0.48.4 r9939"
   sodipodi:docname="jclic-html5.svg"><sodipodi:namedview
     pagecolor="#ffffff"
     bordercolor="#666666"
     borderopacity="1"
     objecttolerance="10"
     gridtolerance="10"
     guidetolerance="10"
     inkscape:pageopacity="0"
     inkscape:pageshadow="2"
     inkscape:window-width="1215"
     inkscape:window-height="1000"
     id="namedview3061"
     showgrid="false"
     inkscape:zoom="12.828125"
     inkscape:cx="32"
     inkscape:cy="32"
     inkscape:window-x="65"
     inkscape:window-y="24"
     inkscape:window-maximized="1"
     inkscape:current-layer="svg3004" /><title
     id="title3024">JClic Player</title><metadata
     id="metadata3010"><rdf:RDF><cc:Work
         rdf:about=""><dc:format>image/svg+xml</dc:format><dc:type
           rdf:resource="http://purl.org/dc/dcmitype/StillImage" /><dc:title>JClic Player</dc:title><dc:creator><cc:Agent><dc:title>Francesc Busquets</dc:title></cc:Agent></dc:creator><dc:source>http://clic.xtec.cat</dc:source><cc:license
           rdf:resource="http://creativecommons.org/licenses/by/3.0/" /></cc:Work><cc:License
         rdf:about="http://creativecommons.org/licenses/by/3.0/"><cc:permits
           rdf:resource="http://creativecommons.org/ns#Reproduction" /><cc:permits
           rdf:resource="http://creativecommons.org/ns#Distribution" /><cc:requires
           rdf:resource="http://creativecommons.org/ns#Notice" /><cc:requires
           rdf:resource="http://creativecommons.org/ns#Attribution" /><cc:permits
           rdf:resource="http://creativecommons.org/ns#DerivativeWorks" /></cc:License></rdf:RDF></metadata><defs
     id="defs3008" /><g
     transform="matrix(0.98698949,0,0,-0.98698949,-2.3771268,50.85122)"
     id="g3012"><g
       transform="matrix(0.01664973,0,0,0.01664973,4.0030216,1.3395515)"
       id="g3014"><path
         d="M 1263.3,1297.41 1533.55,2300.28 2530,2033.77 2262.71,1043.52 C 1835.5,-539.234 -157.441,-2.70312 263.844,1563.11 c 2.968,11.03 999.456,-265.7 999.456,-265.7 z"
         id="path3016"
         style="fill:none;stroke:#9d6329;stroke-width:180;stroke-linecap:round;stroke-linejoin:round;stroke-miterlimit:3.8636899;stroke-opacity:1;stroke-dasharray:none"
         inkscape:connector-curvature="0" /><path
         d="M 1263.3,1297.41 1533.55,2300.28 2530,2033.77 2262.71,1043.52 C 1835.5,-539.234 -157.441,-2.70312 263.844,1563.11 c 2.968,11.03 999.456,-265.7 999.456,-265.7"
         id="path3018"
         style="fill:#f89c0e;fill-opacity:1;fill-rule:nonzero;stroke:none"
         inkscape:connector-curvature="0" /><path
         d="M 357.332,2850 1357.39,2582.2 1090.06,1589.88 90,1856.06 357.332,2850 z"
         id="path3020"
         style="fill:none;stroke:#86882b;stroke-width:180;stroke-linecap:round;stroke-linejoin:round;stroke-miterlimit:3.8636899;stroke-opacity:1;stroke-dasharray:none"
         inkscape:connector-curvature="0" /><path
         d="M 357.332,2850 1357.39,2582.2 1090.06,1589.88 90,1856.06 357.332,2850"
         id="path3022"
         style="fill:#d9e70c;fill-opacity:1;fill-rule:nonzero;stroke:none"
         inkscape:connector-curvature="0" /></g></g><polygon
     style="fill:#e44d26"
     points="74.633,100.62 437.367,100.62 404.321,470.819 255.778,512 107.644,470.877 "
     id="polygon3135"
     transform="matrix(0.08425424,0,0,0.08425424,24.081681,19.482984)" /><polygon
     style="fill:#f16529"
     points="256,480.523 376.03,447.246 404.27,130.894 256,130.894 "
     id="polygon3137"
     transform="matrix(0.08425424,0,0,0.08425424,24.081681,19.482984)" /><polygon
     style="fill:#ebebeb"
     points="142.132,176.305 143.219,188.488 154.38,313.627 256,313.627 256,268.217 195.91,268.217 191.76,221.716 256,221.716 256,176.305 255.843,176.305 "
     id="polygon3139"
     transform="matrix(0.08425424,0,0,0.08425424,24.081681,19.482984)" /><polygon
     style="fill:#ebebeb"
     points="255.791,433.457 256,433.399 256,386.153 255.801,386.206 205.227,372.55 201.994,336.333 177.419,336.333 156.409,336.333 162.771,407.634 "
     id="polygon3141"
     transform="matrix(0.08425424,0,0,0.08425424,24.081681,19.482984)" /><polygon
     style="fill:#ffffff"
     points="255.843,433.435 348.937,407.634 349.62,399.962 360.291,280.411 361.399,268.217 349.162,268.217 255.843,268.217 255.843,313.627 311.761,313.627 306.49,372.521 255.843,386.191 "
     id="polygon3151"
     transform="matrix(0.08425424,0,0,0.08425424,24.081681,19.482984)" /><polygon
     style="fill:#ffffff"
     points="365.531,221.716 366.442,211.509 368.511,188.488 369.597,176.305 255.843,176.305 255.843,204.509 255.843,221.605 255.843,221.716 365.385,221.716 365.385,221.716 "
     id="polygon3153"
     transform="matrix(0.08425424,0,0,0.08425424,24.081681,19.482984)" /></svg>