<?xml version="1.0" encoding="UTF-8" standalone="no"?>
<!-- Created with Inkscape (http://www.inkscape.org/) -->

<svg
   xmlns:dc="http://purl.org/dc/elements/1.1/"
   xmlns:cc="http://creativecommons.org/ns#"
   xmlns:rdf="http://www.w3.org/1999/02/22-rdf-syntax-ns#"
   xmlns:svg="http://www.w3.org/2000/svg"
   xmlns="http://www.w3.org/2000/svg"
   version="1.1"
   width="42"
   height="60"
   id="svg3098">
  <defs
     id="defs3100" />
  <metadata
     id="metadata3103">
    <rdf:RDF>
      <cc:Work
         rdf:about="">
        <dc:format>image/svg+xml</dc:format>
        <dc:type
           rdf:resource="http://purl.org/dc/dcmitype/StillImage" />
        <dc:title></dc:title>
      </cc:Work>
    </rdf:RDF>
  </metadata>
  <g
     transform="translate(0,-4)"
     id="layer1">
    <path
       d="m 39.891721,8.6220471 c 2.770255,2.6172119 2.356773,15.0856309 2.464991,18.8951449 0.108217,3.809513 1.228846,16.234352 -1.388366,19.004607 -2.617212,2.770254 -15.085631,2.356773 -18.895144,2.46499 C 18.263688,49.095006 5.8388486,50.215635 3.0685942,47.598423 0.29833987,44.981212 0.71182155,32.512793 0.60360407,28.703279 0.49538658,24.893765 -0.62524197,12.468926 1.9919698,9.6986716 4.6091815,6.9284172 17.0776,7.3418989 20.887114,7.2336814 24.696628,7.1254639 37.121467,6.0048354 39.891721,8.6220471 z"
       transform="matrix(0.96142165,0,0,0.96142165,0.37412365,6.6299011)"
       id="fons"
       style="opacity:0.8;fill:#e7d3d0;fill-opacity:1;stroke:#d32b3d;stroke-opacity:1" />
    <path
       d="M 20.68594,6.1188264 20.976526,35.760648 -4.839338,21.191393 z"
       transform="translate(11.090909,12.363637)"
       id="fletxa"
       style="opacity:0.5;fill:#013397;fill-opacity:1;stroke:none"
       onmouseover="evt.target.setAttribute('style', evt.target.getAttribute('style').replace(/opacity:\d+(\.\d+)/g, 'opacity:1.0'));"
       onmouseout="evt.target.setAttribute('style', evt.target.getAttribute('style').replace(/opacity:\d+(\.\d+)/g, 'opacity:0.5'));" />
  </g>
</svg>
